<svg xmlns="http://www.w3.org/2000/svg" width="32" height="32" viewBox="0 0 32 32"><path fill="#4d94dd" d="M28.355 21.165l-3.467-.953a.718.718 0 0 0-.883.489.703.703 0 0 0 .497.868l3.462.951c1.727.488 2.603 1.293 2.603 2.393v3.313c0 1.304-1.079 2.365-2.405 2.365H3.838c-1.326 0-2.405-1.061-2.405-2.365v-3.313c0-.407 0-1.647 2.596-2.391l3.63-.987a.704.704 0 0 0 .5-.867.718.718 0 0 0-.882-.491l-3.64.99C.631 22.028 0 23.679 0 24.913v3.313C0 30.307 1.722 32 3.838 32h24.324C30.278 32 32 30.307 32 28.226v-3.313c0-1.24-.632-2.896-3.645-3.748zM8.457 8.89c0-4.125 3.413-7.481 7.608-7.481s7.609 3.356 7.609 7.481v4.348c0 4.125-3.413 7.481-7.609 7.481-4.195 0-7.608-3.356-7.608-7.481V8.89zm7.608 13.237c4.985 0 9.041-3.988 9.041-8.889V8.89c0-4.902-4.056-8.89-9.041-8.89S7.024 3.988 7.024 8.89v4.348c0 4.902 4.056 8.889 9.041 8.889z"/></svg>