<svg xmlns="http://www.w3.org/2000/svg" width="32" height="32" viewBox="0 0 32 32"><path fill="#4d94dd" d="M5.197 13.988c1.525 0 2.767-1.225 2.768-2.73-.001-1.505-1.242-2.73-2.767-2.731-1.525.001-2.767 1.225-2.767 2.73 0 1.506 1.241 2.731 2.766 2.731zm3.475-4.985a4.184 4.184 0 0 1 1.429-1.319 4.135 4.135 0 0 1-1.432-1.316A4.182 4.182 0 0 1 7.24 7.683a4.187 4.187 0 0 1 1.432 1.32zm3.474 4.985c1.526 0 2.767-1.225 2.767-2.73s-1.241-2.729-2.767-2.73c-1.525 0-2.767 1.225-2.767 2.73s1.242 2.73 2.767 2.73zm2.767-9.88c0-1.505-1.241-2.73-2.767-2.73-1.525 0-2.766 1.225-2.766 2.73 0 .729.287 1.414.81 1.93.523.516 1.217.8 1.955.8h.001c1.525 0 2.766-1.225 2.767-2.73zm-9.716-2.73c-1.525 0-2.766 1.225-2.766 2.73s1.241 2.73 2.766 2.73 2.767-1.225 2.767-2.73c.001-1.505-1.241-2.73-2.767-2.73zM3.155 7.683c-1.264-.706-2.12-2.043-2.12-3.575C1.035 1.843 2.902 0 5.197 0c1.451 0 2.729.737 3.475 1.85A4.177 4.177 0 0 1 12.146 0c2.296 0 4.163 1.843 4.163 4.108-.001 1.532-.857 2.868-2.12 3.574 1.264.706 2.12 2.043 2.12 3.575 0 .801-.237 1.547-.641 2.179l15.093 14.892a.682.682 0 0 1 0 .974.699.699 0 0 1-.494.202.7.7 0 0 1-.494-.202l-1.575-1.553-4.103 4.048a.7.7 0 0 1-.986.001.682.682 0 0 1 0-.974l4.103-4.048-1.561-1.54-2.861 2.822a.699.699 0 0 1-.494.202.699.699 0 0 1-.494-.202.682.682 0 0 1 0-.974l2.86-2.822-9.926-9.794a4.175 4.175 0 0 1-2.592.899 4.174 4.174 0 0 1-3.474-1.851 4.178 4.178 0 0 1-3.475 1.851c-2.295 0-4.163-1.843-4.163-4.108.002-1.533.859-2.87 2.123-3.576z"/></svg>